<svg xmlns="http://www.w3.org/2000/svg" viewBox="0 0 135.71 108"><defs><style>.fc8188a3-e9ea-40f0-9726-77954a8f0f13{fill:#62d3ed;}</style></defs><title>Asset 9</title><g id="9bd79e03-a45c-4cea-b7d7-2ce55e14ea7e" data-name="Layer 2"><g id="242417c1-54b4-470d-887e-f4e6239a8e03" data-name="artboard 1"><path class="fc8188a3-e9ea-40f0-9726-77954a8f0f13" d="M67.86,21.8,19.45,61.7a1.14,1.14,0,0,1,0,.25,1.15,1.15,0,0,0,0,.25v40.4A5.47,5.47,0,0,0,24.76,108H57.08V75.67H78.63V108H111a5.47,5.47,0,0,0,5.39-5.39V62.21a1.18,1.18,0,0,0-.08-.5Z"/><path class="fc8188a3-e9ea-40f0-9726-77954a8f0f13" d="M134.77,52.61,116.34,37.29V2.95A2.59,2.59,0,0,0,113.65.25H97.49a2.59,2.59,0,0,0-2.69,2.69V19.36L74.25,2.19a10.44,10.44,0,0,0-12.79,0L.94,52.61A2.44,2.44,0,0,0,0,54.42a2.73,2.73,0,0,0,.59,2l5.22,6.23a2.87,2.87,0,0,0,1.77.93,3.13,3.13,0,0,0,2-.59L67.86,14.39,126.11,63a2.59,2.59,0,0,0,1.77.59h.25a2.87,2.87,0,0,0,1.77-.93l5.22-6.23a2.72,2.72,0,0,0,.59-2A2.45,2.45,0,0,0,134.77,52.61Z"/></g></g></svg>