<svg xmlns="http://www.w3.org/2000/svg" viewBox="0 0 136 178.54"><defs><style>.d482b8b2-cd58-4a42-bc6f-fa154777d70c{fill:#10bb67;}.\32 466ecc7-c8af-45af-b9ec-93b1b3d94732{fill:#0ca656;}.\34 8617277-f0b3-4e91-aa2d-828409df4cf7{fill:#32d736;}.\39 7e7d112-a2ba-4f3a-a707-b9c474100503{fill:#994c0f;}.d5cf2533-afd5-4fab-abdd-28b5e340ef9a{fill:#713708;}.\37 6268445-a3a7-4381-a851-968424e13f82{fill:#bf6015;}.\34 a3c2fc9-59b2-4b3c-97b9-d2377c3f7d6a{fill:#994c10;}</style></defs><title>Asset 10</title><g id="31c87cab-ee46-435f-96f8-610c003aa7ed" data-name="Layer 2"><g id="b9a10bbb-3986-4e38-a01d-f5d47ab91b99" data-name="artboard 1"><path class="d482b8b2-cd58-4a42-bc6f-fa154777d70c" d="M94.15,78.46a5.18,5.18,0,0,1-5.23,5.23c-5.34,0-12.13,4.6-15.69,7.64v18.52a5.23,5.23,0,1,1-10.46,0V90.7a19.9,19.9,0,0,0-15.69-7,5.23,5.23,0,1,1,0-10.46,30.66,30.66,0,0,1,15.69,4.18V70.19A81.62,81.62,0,0,0,44.78,57a5.16,5.16,0,0,1-2.3-7,5.23,5.23,0,0,1,7-2.41,96.45,96.45,0,0,1,13.29,8.79V47.08a5.23,5.23,0,1,1,10.46,0v9.31A87.55,87.55,0,0,1,86.62,47.6,5.24,5.24,0,0,1,91.22,57a84.49,84.49,0,0,0-18,13.18v8.26c4.5-2.72,10-5.23,15.69-5.23A5.18,5.18,0,0,1,94.15,78.46Z"/><path class="2466ecc7-c8af-45af-b9ec-93b1b3d94732" d="M68,115.07V41.84a5.18,5.18,0,0,1,5.23,5.23v9.31A87.55,87.55,0,0,1,86.62,47.6,5.24,5.24,0,0,1,91.22,57a84.49,84.49,0,0,0-18,13.18v8.26c4.5-2.72,10-5.23,15.69-5.23a5.23,5.23,0,1,1,0,10.46c-5.34,0-12.13,4.6-15.69,7.64v18.52A5.18,5.18,0,0,1,68,115.07Z"/><path class="48617277-f0b3-4e91-aa2d-828409df4cf7" d="M71.45,1.36a5.06,5.06,0,0,0-6.91,0C64,1.78,52.31,12.45,52.31,26.15S64,50.53,64.55,50.95a5.06,5.06,0,0,0,6.91,0c.52-.42,12.24-11.09,12.24-24.79S72,1.78,71.45,1.36Z"/><path class="d482b8b2-cd58-4a42-bc6f-fa154777d70c" d="M109.84,94.15c-13.73,0-24.38-11.7-24.81-12.2a5.21,5.21,0,0,1,0-7c.44-.5,11.08-12.2,24.81-12.2s24.38,11.7,24.81,12.2a5.21,5.21,0,0,1,0,7C134.22,82.45,123.57,94.15,109.84,94.15Z"/><path class="d482b8b2-cd58-4a42-bc6f-fa154777d70c" d="M87.47,57.28a5.22,5.22,0,0,1-3.48-6c.13-.65,3.49-16.12,15.4-23s27-2,27.6-1.84a5.22,5.22,0,0,1,3.48,6c-.13.65-3.49,16.12-15.4,23C107.08,60.05,95.85,60,87.47,57.28Z"/><path class="48617277-f0b3-4e91-aa2d-828409df4cf7" d="M26.16,94.15c-13.73,0-24.38-11.7-24.81-12.2a5.21,5.21,0,0,1,0-7c.44-.5,11.08-12.2,24.81-12.2S50.53,74.47,51,75a5.21,5.21,0,0,1,0,7C50.53,82.45,39.89,94.15,26.16,94.15Z"/><path class="48617277-f0b3-4e91-aa2d-828409df4cf7" d="M20.95,55.44c-11.89-6.87-15.26-22.32-15.4-23a5.23,5.23,0,0,1,3.48-6c.64-.21,15.71-5,27.6,1.84h0c11.9,6.87,15.26,22.33,15.4,23a5.22,5.22,0,0,1-3.48,6C40.17,60,28.94,60.05,20.95,55.44Z"/><path class="d482b8b2-cd58-4a42-bc6f-fa154777d70c" d="M71.45,50.95A4.82,4.82,0,0,1,68,52.31V0a4.82,4.82,0,0,1,3.45,1.36c.52.42,12.24,11.09,12.24,24.79S72,50.53,71.45,50.95Z"/><path class="97e7d112-a2ba-4f3a-a707-b9c474100503" d="M109.84,126.23H26.16A5.31,5.31,0,0,0,21,132.72l10.46,41.84a5.37,5.37,0,0,0,5.13,4H99.38a5.37,5.37,0,0,0,5.13-4L115,132.72A5.31,5.31,0,0,0,109.84,126.23Z"/><path class="d5cf2533-afd5-4fab-abdd-28b5e340ef9a" d="M115,132.72l-10.46,41.84a5.37,5.37,0,0,1-5.13,4H68V126.23h41.84A5.31,5.31,0,0,1,115,132.72Z"/><path class="76268445-a3a7-4381-a851-968424e13f82" d="M120.31,104.61H15.69a5.18,5.18,0,0,0-5.23,5.23V121a15.67,15.67,0,0,0,15.69,15.69h83.69A15.67,15.67,0,0,0,125.54,121V109.84A5.18,5.18,0,0,0,120.31,104.61Z"/><path class="4a3c2fc9-59b2-4b3c-97b9-d2377c3f7d6a" d="M125.54,109.84V121a15.67,15.67,0,0,1-15.69,15.69H68V104.61h52.31A5.18,5.18,0,0,1,125.54,109.84Z"/></g></g></svg>