<svg xmlns="http://www.w3.org/2000/svg" viewBox="0 0 130 130"><defs><style>.\37 298a3b6-73f7-4474-9cfa-437c03b3e326{fill:#62d3ed;}</style></defs><title>Asset 11</title><g id="3fa17d6c-d4cf-41c1-8d47-6c4b231ccd86" data-name="Layer 2"><g id="6aff102a-b086-43b2-97ba-ecd3a2d9f2f8" data-name="artboard 1"><path class="7298a3b6-73f7-4474-9cfa-437c03b3e326" d="M128.49,51.14a4.55,4.55,0,0,0-4-3.53L113.88,46.1a9,9,0,0,0-1-2.27l6.55-8.57a4.93,4.93,0,0,0,.25-5.54c0-.25-2.77-4.53-8.82-10.58s-10.33-8.82-10.58-8.82a4.93,4.93,0,0,0-5.54.25l-8.57,6.55a9,9,0,0,0-2.27-1L82.38,5.54a4.55,4.55,0,0,0-3.53-4A57.88,57.88,0,0,0,65,0,57.88,57.88,0,0,0,51.14,1.51a4.55,4.55,0,0,0-3.53,4L46.1,16.12a9,9,0,0,0-2.27,1l-8.57-6.55a4.93,4.93,0,0,0-5.54-.25c-.25,0-4.53,2.77-10.58,8.82s-8.82,10.33-8.82,10.58a4.93,4.93,0,0,0,.25,5.54l6.55,8.57a10.53,10.53,0,0,0-1,2.52L5.54,47.62a4.55,4.55,0,0,0-4,3.53A57.88,57.88,0,0,0,0,65,57.88,57.88,0,0,0,1.51,78.86a4.55,4.55,0,0,0,4,3.53L16.12,83.9a9,9,0,0,0,1,2.27l-6.55,8.57a4.93,4.93,0,0,0-.25,5.54c0,.25,2.77,4.53,8.82,10.58s10.33,8.82,10.58,8.82a4.93,4.93,0,0,0,5.54-.25l8.57-6.55a10.53,10.53,0,0,0,2.52,1l1.26,10.58a4.55,4.55,0,0,0,3.53,4A57.88,57.88,0,0,0,65,130a57.88,57.88,0,0,0,13.86-1.51,4.55,4.55,0,0,0,3.53-4l1.51-10.58a9,9,0,0,0,2.27-1l8.57,6.55a4.93,4.93,0,0,0,5.54.25c.25,0,4.53-2.77,10.58-8.82s8.82-10.33,8.82-10.58a4.93,4.93,0,0,0-.25-5.54l-6.55-8.57a9,9,0,0,0,1-2.27l10.58-1.51a4.55,4.55,0,0,0,4-3.53A57.88,57.88,0,0,0,130,65,57.88,57.88,0,0,0,128.49,51.14Zm-8.82,22.17-10.08,1.26a4.94,4.94,0,0,0-4,3.28,42.49,42.49,0,0,1-2.77,6.8,5.62,5.62,0,0,0,.5,5.29l6.3,7.81a82.19,82.19,0,0,1-5.54,6.3c-2.52,2.52-4.53,4.28-6,5.54l-8.06-6.3a5.62,5.62,0,0,0-5.29-.5,32.12,32.12,0,0,1-6.8,2.77,4.94,4.94,0,0,0-3.28,4l-1.26,10.08a68.84,68.84,0,0,1-16.63,0l-1.26-10.08a4.94,4.94,0,0,0-3.28-4,42.49,42.49,0,0,1-6.8-2.77,5.14,5.14,0,0,0-5,.5l-8.06,6.3a82.19,82.19,0,0,1-6.3-5.54,74.05,74.05,0,0,1-5.29-6l6-8.06a5.62,5.62,0,0,0,.5-5.29c-2-3.78-1.26-2.52-2.77-6.8a4.94,4.94,0,0,0-4-3.28L10.33,73.31a68.84,68.84,0,0,1,0-16.63l10.08-1.26a4.94,4.94,0,0,0,4-3.28c.5-1.76,1.26-3.28,1.26-3.53,0,0,.76-1.76,1.51-3.28a5.14,5.14,0,0,0-.5-5l-6-8.06a69.87,69.87,0,0,1,5.29-6.3,69.87,69.87,0,0,1,6.3-5.29l8.06,6a5.14,5.14,0,0,0,5,.5c3.78-2,2.52-1.26,6.8-2.77a4.94,4.94,0,0,0,3.28-4l1.26-10.08a68.84,68.84,0,0,1,16.63,0l1.26,10.08a4.94,4.94,0,0,0,3.28,4,42.49,42.49,0,0,1,6.8,2.77,5.62,5.62,0,0,0,5.29-.5l8.06-6a74.05,74.05,0,0,1,6,5.29,82.19,82.19,0,0,1,5.54,6.3l-6.3,8.06a5.14,5.14,0,0,0-.5,5c2,4.28,1.51,2.27,3,6.8a4.61,4.61,0,0,0,3.78,3.28l10.08,1.26a68.84,68.84,0,0,1,0,16.63Z"/><path class="7298a3b6-73f7-4474-9cfa-437c03b3e326" d="M65,34A31,31,0,1,0,96,65,31,31,0,0,0,65,34Zm0,52.15A21.16,21.16,0,1,1,86.16,65,21,21,0,0,1,65,86.16Z"/></g></g></svg>