<?xml version="1.0" encoding="iso-8859-1"?>
<!-- Generator: Adobe Illustrator 19.0.0, SVG Export Plug-In . SVG Version: 6.00 Build 0)  -->
<svg version="1.1" id="Capa_1" xmlns="http://www.w3.org/2000/svg" xmlns:xlink="http://www.w3.org/1999/xlink" x="0px" y="0px"
	 viewBox="0 0 511.999 511.999" style="enable-background:new 0 0 511.999 511.999;" xml:space="preserve">
<path style="fill:#91C437;" d="M470.066,162.682c-0.911-0.245-1.613-58.677-97.459,0.999c-14.506,8.231-27.285,20.088-37.872,30.85
	c3.302,2.382,6.54,3.994,9.783,6.755c3.725,3.173,6.261,7.388,9.481,10.736c18.422-3.486,38.62-1.602,51.376,17.775
	c31.902,48.459,66.279,17.878,66.279,17.878C497.815,266.588,541.975,201.555,470.066,162.682z"/>
<path style="fill:#80AD1F;" d="M347.694,204.493c10.087-9.586,21.897-19.616,35.036-26.713
	c24.12-14.328,65.754-34.881,86.157-20.366c-11.393-40.173-66.982-11.974-96.279,6.267c-14.506,8.231-27.285,20.088-37.872,30.85
	C339.774,198.166,343.139,199.262,347.694,204.493z"/>
<path style="fill:#78991D;" d="M471.714,218.413c-20.988-20.547-48.185-28.256-80.829-22.916
	c-24.884,4.071-43.435,14.42-43.619,14.524c-3.693,2.085-8.376,0.779-10.46-2.915c-2.083-3.693-0.778-8.376,2.916-10.46
	c0.85-0.48,21.139-11.797,48.684-16.303c37.202-6.09,69.726,3.282,94.051,27.097c3.03,2.966,3.082,7.828,0.115,10.859
	C479.605,221.327,474.745,221.381,471.714,218.413z"/>
<path style="fill:#9AD14B;" d="M142.078,92.032c12.214,5.227,18.763,14.947,21.78,24.932c7.765,1.974,23.001,7.503,31.484,13.229
	c3.283-6.081,6.232-13.533,8.585-20.221c36.463-91.535-13.837-83.127-14.186-83.868c-44.49-55.767-93.535-7.796-73.252,11.756
	C116.491,37.859,95.529,72.109,142.078,92.032z"/>
<path style="fill:#91C437;" d="M170.71,118.655c-1.009-10.382-5.533-21.194-16.491-28.706
	c-30.497-20.907-24.194-42.276-18.574-52.283c1.935-3.445,2.481-7.456,1.626-11.313c-2.181-9.836,6.165-20.558,18.786-24.851
	c-31.301-8.542-54.678,21.79-39.565,36.359c0,0-20.962,34.25,25.588,54.172c12.214,5.227,18.763,14.947,21.78,24.933
	c3.037,0.772,6.088,1.757,9.164,2.855C172.253,119.421,171.483,119.024,170.71,118.655z"/>
<path style="fill:#9AD14B;" d="M302.744,149.299c12.437,8.918,13.917,23.303,12.034,35.441c7.182,2.336,14.815,5.112,21.216,9.718
	c5.139-5.482,10.039-12.6,14.173-19.253c46.46-68.387,3.726-70.616,3.575-71.284c-26.346-53.752-75.221-23.336-62.145-3.642
	C291.597,100.279,268.216,124.542,302.744,149.299z"/>
<path style="fill:#91C437;" d="M315.11,182.253c4.012-10.837,5.115-23.873-4.001-34.684c-20.261-24.03-9.867-40.011-3.086-46.7
	c2.167-2.138,3.522-5.013,3.561-8.057c0.1-7.773,7.587-14.251,17.347-15.977c-23.548-10.897-46.852,9.108-37.335,23.443
	c0,0-23.38,24.262,11.148,49.02C314.341,157.615,316.409,170.684,315.11,182.253z"/>
<g>
	<path style="fill:#80AD1F;" d="M323.745,196.193c-3.892-1.684-5.682-6.205-3.998-10.096c12.254-28.316,1.008-58.796,0.893-59.101
		c-1.496-3.961,0.494-8.393,4.452-9.898c3.959-1.505,8.384,0.47,9.897,4.426c0.564,1.474,13.642,36.495-1.148,70.672
		C332.162,196.076,327.648,197.883,323.745,196.193z"/>
	<path style="fill:#80AD1F;" d="M178.454,131.053c-4.211-0.504-7.216-4.325-6.713-8.535c6.255-52.334-15.546-77.139-29.098-87.268
		c-3.397-2.539-4.092-7.35-1.553-10.748c2.538-3.397,7.349-4.093,10.747-1.554c39.165,29.273,37.63,80.657,35.151,101.391
		C186.487,128.544,182.672,131.557,178.454,131.053z"/>
</g>
<path style="fill:#F6B138;" d="M184.662,277.244c2.038-5.028,4.043-10.126,6.009-15.293
	c42.876-112.691,18.856-129.315-13.844-141.756c-32.699-12.441-61.694-15.989-104.571,96.702
	C29.38,329.588,21.13,431.028,53.829,443.469c9.524,3.624,21.474-0.715,34.685-11.452
	C104.463,389.302,138.388,333.545,184.662,277.244z"/>
<path style="fill:#F2902F;" d="M98.678,221.927c30.075-79.044,53.32-100.896,75.804-102.607
	c-31.752-11.667-60.377-12.411-102.226,97.578C29.38,329.588,21.13,431.028,53.829,443.469c5.315,2.022,11.386,1.559,18.009-1.105
	C49.5,416.115,59.992,323.606,98.678,221.927z"/>
<g>
	<path style="fill:#EA7E1C;" d="M96.002,163.233c47.751,17.978,46.031,17.949,48.581,17.949c8.489,0,10.672-11.837,2.732-14.857
		l-43.543-16.567C101.229,153.813,98.64,158.303,96.002,163.233z"/>
	<path style="fill:#EA7E1C;" d="M145.406,210.639c-3.965-1.511-8.399,0.484-9.907,4.446c-1.508,3.963,0.482,8.399,4.446,9.907
		c55.55,20.761,53.155,21.051,56.7,20.646c1.603-4.563,3.088-8.956,4.447-13.17C199.024,230.492,200.33,231.765,145.406,210.639z"/>
	<path style="fill:#EA7E1C;" d="M125.795,384.386c-0.907,0-1.83-0.162-2.729-0.504l-25.426-9.674
		c-3.964-1.508-5.954-5.944-4.446-9.907s5.942-5.953,9.907-4.446l25.426,9.674C136.461,372.547,134.289,384.386,125.795,384.386z"/>
	<path style="fill:#EA7E1C;" d="M116.791,216.182l-10.448-3.975c-3.964-1.508-5.954-5.944-4.446-9.907s5.943-5.957,9.907-4.446
		l10.448,3.975c3.964,1.508,5.954,5.944,4.446,9.907C125.19,215.698,120.755,217.69,116.791,216.182z"/>
	<path style="fill:#EA7E1C;" d="M79.451,274.44l-23.767-9.043c-1.508,4.983-2.941,9.917-4.296,14.796
		c23.421,8.73,22.848,9.103,25.331,9.103C85.208,289.297,87.391,277.46,79.451,274.44z"/>
	<path style="fill:#EA7E1C;" d="M63.564,240.969c68.91,26.027,66.096,25.624,68.753,25.624c8.489,0,10.672-11.837,2.732-14.857
		l-66.364-25.25C66.911,231.342,65.206,236.171,63.564,240.969z"/>
	<path style="fill:#EA7E1C;" d="M137.489,348.301c-2.597,0-0.876,0.012-52.402-19.403c-3.964-1.508-5.954-5.944-4.446-9.907
		s5.942-5.953,9.907-4.446l49.673,18.899c3.964,1.508,5.954,5.944,4.446,9.907C143.501,346.415,140.584,348.301,137.489,348.301z"/>
</g>
<path style="fill:#FF822E;" d="M305,359.632C215.421,464.81,118.061,529.003,87.542,503.009
	C57.022,477.016,104.9,370.681,194.48,265.502s119.518-90.209,150.037-64.216C375.037,227.279,394.58,254.453,305,359.632z"/>
<path style="fill:#F96E21;" d="M219.059,279.287c62.618-73.522,96.091-88.33,120.994-81.709
	c-29.114-23.458-60.358-32.129-145.572,67.923C104.9,370.681,57.022,477.016,87.542,503.009c4.708,4.01,11.01,5.866,18.625,5.765
	C89.78,473.287,136.855,375.805,219.059,279.287z"/>
<g>
	<path style="fill:#EF5B11;" d="M289.227,254.123c7.142,0,10.376-8.93,4.982-13.524l-40.802-34.751
		c-3.782,3.021-7.724,6.372-11.841,10.087C285.546,252.525,284.134,254.123,289.227,254.123z"/>
	<path style="fill:#EF5B11;" d="M276.148,288.725c-3.228-2.749-8.074-2.361-10.824,0.867c-2.749,3.228-2.361,8.075,0.867,10.825
		c51.788,43.895,49.458,42.647,51.812,43.546c3.19-3.951,6.218-7.788,9.071-11.5C325.942,330.807,328.209,333.203,276.148,288.725z"
		/>
	<path style="fill:#EF5B11;" d="M171.923,452.526l-9.752-8.306c-3.228-2.75-3.616-7.596-0.866-10.825
		c2.75-3.228,7.596-3.615,10.824-0.867l9.752,8.306c3.228,2.75,3.616,7.596,0.866,10.825
		C179.993,454.892,175.146,455.271,171.923,452.526z"/>
	<path style="fill:#EF5B11;" d="M248.531,282.82c-1.761,0-3.53-0.602-4.975-1.833l-9.752-8.306
		c-3.228-2.75-3.616-7.596-0.866-10.825c2.75-3.228,7.596-3.616,10.824-0.867l9.752,8.306c3.228,2.75,3.616,7.596,0.866,10.825
		C252.861,281.903,250.703,282.82,248.531,282.82z"/>
	<path style="fill:#EF5B11;" d="M174.431,344.761c7.142,0,10.377-8.93,4.982-13.524l-22.122-18.841
		c-3.08,4.185-6.087,8.353-9.011,12.497C168.821,341.625,169.49,344.761,174.431,344.761z"/>
	<path style="fill:#EF5B11;" d="M248.154,328.088l-61.931-52.746c-3.29,3.98-6.512,7.958-9.677,11.93l61.652,52.508
		c1.445,1.231,3.214,1.833,4.975,1.833c2.172,0,4.331-0.917,5.849-2.699C251.77,335.685,251.382,330.838,248.154,328.088z"/>
	<path style="fill:#EF5B11;" d="M177.008,379.817c-3.228-2.748-8.074-2.361-10.824,0.867c-2.749,3.228-2.361,8.075,0.867,10.825
		l58.191,49.561c3.764-3.289,7.556-6.686,11.368-10.176C235.52,429.365,238.615,432.408,177.008,379.817z"/>
	<path style="fill:#EF5B11;" d="M181.301,511.987c-4.233-0.258-7.455-3.898-7.198-8.131l1.844-30.294
		c0.257-4.232,3.89-7.432,8.131-7.197c4.233,0.258,7.455,3.898,7.198,8.131l-1.844,30.294
		C189.179,508.952,185.624,512.232,181.301,511.987z"/>
</g>
<path style="fill:#EA7E1C;" d="M3.375,373.993c-1.644-3.909,0.192-8.41,4.102-10.054l23.37-9.828
	c3.909-1.647,8.41,0.192,10.054,4.101c1.644,3.909-0.192,8.41-4.102,10.054l-23.37,9.828C9.499,379.748,5.01,377.881,3.375,373.993z
	"/>
<path style="fill:#EF5B11;" d="M260.6,428.686l-8.218-15.88c-1.949-3.766-0.476-8.399,3.29-10.349
	c3.766-1.951,8.4-0.476,10.349,3.29l8.218,15.88c1.949,3.766,0.476,8.399-3.29,10.349
	C267.167,433.934,262.542,432.437,260.6,428.686z"/>
<path style="fill:#EA7E1C;" d="M17.835,305.035c-1.008-4.119,1.514-8.275,5.633-9.284l23.728-5.808
	c4.121-1.011,8.275,1.514,9.284,5.633c1.008,4.119-1.514,8.275-5.633,9.284l-23.728,5.808
	C22.991,311.677,18.842,309.147,17.835,305.035z"/>
<g>
</g>
<g>
</g>
<g>
</g>
<g>
</g>
<g>
</g>
<g>
</g>
<g>
</g>
<g>
</g>
<g>
</g>
<g>
</g>
<g>
</g>
<g>
</g>
<g>
</g>
<g>
</g>
<g>
</g>
</svg>
