<svg xmlns="http://www.w3.org/2000/svg" viewBox="0 0 287.58 231.62"><defs><style>.bbb01fe2-b588-4e2a-b481-d05c096d3ce1{fill:#77b255;}.daabd572-8ea0-4765-a60a-5dbef33fab74{fill:#5c913b;}.f2e6e387-72e3-4641-b414-02cbe5d06432{fill:#3e721d;}.e9cc7a4b-ba37-4449-8477-411044d77e14{fill:#94de6a;}.d02d6ee6-845e-4e20-bb73-1e6552adae49{fill:#80c955;}.da68695a-7446-40c9-b434-8464cff03755{fill:#509426;}</style></defs><title>Asset 3</title><g id="79375728-8e97-4b96-b88b-b4a9f686ab17" data-name="Layer 2"><g id="b316fc92-6456-4c24-b353-31ca2d63509f" data-name="Layer 2"><path class="bbb01fe2-b588-4e2a-b481-d05c096d3ce1" d="M127.9,133.12l-42.07-23.2L43.75,86.71s21.7,65-41.84,101.95A102.88,102.88,0,0,0,64,222.9c-2.67-73.43,63.91-89.77,63.91-89.77"/><path class="daabd572-8ea0-4765-a60a-5dbef33fab74" d="M60.71,103.26c1.91,22.64-13.88,64.3-13.88,64.3l36.52-66.21c12.17-22.07-22.64,1.91-22.64,1.91"/><path class="daabd572-8ea0-4765-a60a-5dbef33fab74" d="M144.61,120.75s-63,22.83-92.83,63.93c33.47-60.69,53.64-71.15,53.64-71.15Z"/><path class="f2e6e387-72e3-4641-b414-02cbe5d06432" d="M176.51,143.74a14.65,14.65,0,0,0,4-27.18,14.75,14.75,0,0,0-2-.85,14.29,14.29,0,0,0,7.31-13,14.61,14.61,0,0,0-.44-25.43,14.71,14.71,0,0,0-14.2-21.74,14.53,14.53,0,0,0-15-17.08,14.83,14.83,0,0,0,1.23-1.78,14.67,14.67,0,0,0-22.64-18,14.59,14.59,0,0,0-18.09-7.06,14.65,14.65,0,0,0-27.18-4,14.67,14.67,0,0,0-16.87,2,14.7,14.7,0,0,0-27.73,8,14.54,14.54,0,0,0-17.09,15A14.83,14.83,0,0,0,26,31.36,14.67,14.67,0,0,0,8,54a14.66,14.66,0,0,0,7.26,27.73,14.36,14.36,0,0,0,4.54,21.76,14.64,14.64,0,0,0,8.42,1.77,14.61,14.61,0,0,0,24.2,13.35,14.56,14.56,0,0,0,13.66,7.95,14.64,14.64,0,0,0,21.41,19.79,14.63,14.63,0,0,0,20.82,5.74,15,15,0,0,0,1.6,1.11,14.6,14.6,0,0,0,12.11.88,14.52,14.52,0,0,0,28,2,14.64,14.64,0,0,0,26.45-12.34"/><path class="daabd572-8ea0-4765-a60a-5dbef33fab74" d="M33.31,48.57A9.45,9.45,0,1,1,29.6,35.74a9.45,9.45,0,0,1,3.71,12.84"/><path class="daabd572-8ea0-4765-a60a-5dbef33fab74" d="M59,41.15a9.45,9.45,0,1,1-3.71-12.84A9.45,9.45,0,0,1,59,41.15"/><path class="daabd572-8ea0-4765-a60a-5dbef33fab74" d="M71.17,19.08A9.45,9.45,0,1,1,67.46,6.24a9.45,9.45,0,0,1,3.71,12.84"/><path class="daabd572-8ea0-4765-a60a-5dbef33fab74" d="M96.28,25.74A9.45,9.45,0,1,1,92.57,12.9a9.45,9.45,0,0,1,3.71,12.84"/><path class="daabd572-8ea0-4765-a60a-5dbef33fab74" d="M113.4,20.79A9.45,9.45,0,1,1,109.69,8a9.45,9.45,0,0,1,3.71,12.84"/><path class="daabd572-8ea0-4765-a60a-5dbef33fab74" d="M121.39,32.39a9.45,9.45,0,1,1-3.71-12.84,9.45,9.45,0,0,1,3.71,12.84"/><path class="daabd572-8ea0-4765-a60a-5dbef33fab74" d="M135.47,33a9.45,9.45,0,1,1-3.71-12.84A9.45,9.45,0,0,1,135.47,33"/><path class="daabd572-8ea0-4765-a60a-5dbef33fab74" d="M155.06,36.57a9.45,9.45,0,1,1-3.71-12.84,9.45,9.45,0,0,1,3.71,12.84"/><path class="daabd572-8ea0-4765-a60a-5dbef33fab74" d="M154.49,50.65a9.45,9.45,0,1,1-3.71-12.84,9.45,9.45,0,0,1,3.71,12.84"/><path class="daabd572-8ea0-4765-a60a-5dbef33fab74" d="M173.52,68.34a9.45,9.45,0,1,1-3.71-12.84,9.45,9.45,0,0,1,3.71,12.84"/><path class="daabd572-8ea0-4765-a60a-5dbef33fab74" d="M184,88.5a9.45,9.45,0,1,1-3.71-12.84A9.45,9.45,0,0,1,184,88.5"/><path class="daabd572-8ea0-4765-a60a-5dbef33fab74" d="M137.37,55.6a9.45,9.45,0,1,1-3.71-12.84,9.45,9.45,0,0,1,3.71,12.84"/><path class="daabd572-8ea0-4765-a60a-5dbef33fab74" d="M115.3,43.43a9.45,9.45,0,1,1-3.71-12.84,9.45,9.45,0,0,1,3.71,12.84"/><path class="daabd572-8ea0-4765-a60a-5dbef33fab74" d="M90.19,36.77a9.45,9.45,0,1,1-3.71-12.84,9.45,9.45,0,0,1,3.71,12.84"/><path class="daabd572-8ea0-4765-a60a-5dbef33fab74" d="M67,52.75a9.45,9.45,0,1,1-3.71-12.84A9.45,9.45,0,0,1,67,52.75"/><path class="daabd572-8ea0-4765-a60a-5dbef33fab74" d="M73.07,41.72a9.45,9.45,0,1,1-3.71-12.84,9.45,9.45,0,0,1,3.71,12.84"/><path class="daabd572-8ea0-4765-a60a-5dbef33fab74" d="M52.34,66.26a9.45,9.45,0,1,1-3.71-12.84,9.45,9.45,0,0,1,3.71,12.84"/><path class="daabd572-8ea0-4765-a60a-5dbef33fab74" d="M97.61,62.45A9.45,9.45,0,1,1,93.9,49.61a9.45,9.45,0,0,1,3.71,12.84"/><path class="daabd572-8ea0-4765-a60a-5dbef33fab74" d="M136.24,83.76a9.45,9.45,0,1,1-3.71-12.84,9.45,9.45,0,0,1,3.71,12.84"/><path class="daabd572-8ea0-4765-a60a-5dbef33fab74" d="M152.22,107a9.45,9.45,0,1,1-3.71-12.84A9.45,9.45,0,0,1,152.22,107"/><path class="e9cc7a4b-ba37-4449-8477-411044d77e14" d="M189.65,175.53l-32.84-44.59L124,86.33S80.33,148.64,21.58,173.44c-11.53,4.87-14,13-19,15,.3,2,10.41,13.82,28,23,18,12,44,20.18,44,20.18,35.43-74.11,115.07-56.09,115.07-56.09"/><path class="d02d6ee6-845e-4e20-bb73-1e6552adae49" d="M133.45,111.44C123.69,134.84,85.1,168,85.1,168l73.52-46.82c24.5-15.6-25.18-9.74-25.18-9.74"/><path class="d02d6ee6-845e-4e20-bb73-1e6552adae49" d="M214,171.86s-79.16-9.73-132.49,15.64c67.39-42.92,94.39-42.93,94.39-42.93Z"/><path class="da68695a-7446-40c9-b434-8464cff03755" d="M236,211a18.1,18.1,0,0,0,14.19-2.13,15.61,15.61,0,0,0,4.24-22.75,17.38,17.38,0,0,0-1.69-1.87,17.75,17.75,0,0,0,8.83-2.68,16,16,0,0,0,5.75-6.44,17.71,17.71,0,0,0,8.54-2.66,15.62,15.62,0,0,0,4.24-22.75A15.62,15.62,0,0,0,284.4,127a17.87,17.87,0,0,0-8.08-6.08,15.53,15.53,0,0,0,.15-18.94,17.69,17.69,0,0,0-7.27-5.68,17.48,17.48,0,0,0,2.25-1.13,15.61,15.61,0,0,0,4.25-22.76,18.39,18.39,0,0,0-19-6.72,15.94,15.94,0,0,0-3.17-9.2A18.1,18.1,0,0,0,241,49.39,15.69,15.69,0,0,0,238.4,36a18.39,18.39,0,0,0-24.34-4.54,18.39,18.39,0,0,0-19-6.72,16,16,0,0,0-3.18-9.2A18.39,18.39,0,0,0,167.48,11a15.94,15.94,0,0,0-6.28,7.44,18.39,18.39,0,0,0-20.19-.6,15.94,15.94,0,0,0-5.89,6.69,16.79,16.79,0,0,0-1.26-2.14,18.39,18.39,0,0,0-24.34-4.54,15.52,15.52,0,0,0-6.7,17.72,17.87,17.87,0,0,0-9.72,2.76,15.61,15.61,0,0,0-4.25,22.76,17.66,17.66,0,0,0,7.27,5.68,17.48,17.48,0,0,0-2.25,1.13,15.63,15.63,0,0,0-4.25,22.76,17.86,17.86,0,0,0,8.08,6.08,15.54,15.54,0,0,0-.15,18.94,18.37,18.37,0,0,0,19,6.72,16,16,0,0,0,3.18,9.2,17.72,17.72,0,0,0,7.27,5.69,17.35,17.35,0,0,0-2.25,1.13,15.62,15.62,0,0,0-4.24,22.75,18.37,18.37,0,0,0,19,6.72,16,16,0,0,0,3.18,9.2,18.28,18.28,0,0,0,16.07,7.18,17,17,0,0,0,1.13,1.92,18.11,18.11,0,0,0,12.47,7.09,15.66,15.66,0,0,0,2.6,13.38,18.4,18.4,0,0,0,24.35,4.54,16.53,16.53,0,0,0,1.94-1.54,16,16,0,0,0,3.08,8.36,18.38,18.38,0,0,0,24.34,4.54A15.65,15.65,0,0,0,236,211"/><path class="d02d6ee6-845e-4e20-bb73-1e6552adae49" d="M132.68,43.19A11.82,11.82,0,0,1,117,40.27a10,10,0,0,1,2.73-14.62,11.82,11.82,0,0,1,15.65,2.92,10,10,0,0,1-2.73,14.62"/><path class="d02d6ee6-845e-4e20-bb73-1e6552adae49" d="M164,49a11.82,11.82,0,0,1-15.65-2.92,10,10,0,0,1,2.73-14.62,11.82,11.82,0,0,1,15.65,2.92A10,10,0,0,1,164,49"/><path class="d02d6ee6-845e-4e20-bb73-1e6552adae49" d="M188.49,33.43a11.82,11.82,0,0,1-15.65-2.92,10,10,0,0,1,2.73-14.62,11.82,11.82,0,0,1,15.65,2.92,10,10,0,0,1-2.73,14.62"/><path class="d02d6ee6-845e-4e20-bb73-1e6552adae49" d="M211.85,52.92A11.82,11.82,0,0,1,196.2,50a10,10,0,0,1,2.73-14.62,11.82,11.82,0,0,1,15.65,2.92,10,10,0,0,1-2.73,14.62"/><path class="d02d6ee6-845e-4e20-bb73-1e6552adae49" d="M232.72,56.81a11.82,11.82,0,0,1-15.65-2.92,10,10,0,0,1,2.73-14.62,11.82,11.82,0,0,1,15.65,2.92,10,10,0,0,1-2.73,14.62"/><path class="d02d6ee6-845e-4e20-bb73-1e6552adae49" d="M235.21,72.41a11.82,11.82,0,0,1-15.65-2.92,10,10,0,0,1,2.73-14.62,11.82,11.82,0,0,1,15.65,2.92,10,10,0,0,1-2.73,14.62"/><path class="d02d6ee6-845e-4e20-bb73-1e6552adae49" d="M249.95,80.2a11.82,11.82,0,0,1-15.65-2.92A10,10,0,0,1,237,62.66a11.82,11.82,0,0,1,15.65,2.92,10,10,0,0,1-2.73,14.62"/><path class="d02d6ee6-845e-4e20-bb73-1e6552adae49" d="M269,93.85a11.82,11.82,0,0,1-15.65-2.92,10,10,0,0,1,2.73-14.62,11.82,11.82,0,0,1,15.65,2.92A10,10,0,0,1,269,93.85"/><path class="d02d6ee6-845e-4e20-bb73-1e6552adae49" d="M261,107.5a11.82,11.82,0,0,1-15.65-2.92A10,10,0,0,1,248.13,90a11.82,11.82,0,0,1,15.65,2.92A10,10,0,0,1,261,107.5"/><path class="d02d6ee6-845e-4e20-bb73-1e6552adae49" d="M272.15,134.8a11.82,11.82,0,0,1-15.65-2.92,10,10,0,0,1,2.73-14.62,11.82,11.82,0,0,1,15.65,2.92,10,10,0,0,1-2.73,14.62"/><path class="d02d6ee6-845e-4e20-bb73-1e6552adae49" d="M272.82,160.14a11.82,11.82,0,0,1-15.65-2.92,10,10,0,0,1,2.73-14.62,11.82,11.82,0,0,1,15.65,2.92,10,10,0,0,1-2.73,14.62"/><path class="d02d6ee6-845e-4e20-bb73-1e6552adae49" d="M240.18,103.61a11.82,11.82,0,0,1-15.65-2.92,10,10,0,0,1,2.73-14.62A11.82,11.82,0,0,1,242.91,89a10,10,0,0,1-2.73,14.62"/><path class="d02d6ee6-845e-4e20-bb73-1e6552adae49" d="M223,80.21a11.82,11.82,0,0,1-15.65-2.92A10,10,0,0,1,210,62.67a11.82,11.82,0,0,1,15.65,2.92A10,10,0,0,1,223,80.21"/><path class="d02d6ee6-845e-4e20-bb73-1e6552adae49" d="M199.6,60.72a11.82,11.82,0,0,1-15.65-2.92,10,10,0,0,1,2.73-14.62,11.82,11.82,0,0,1,15.65,2.92,10,10,0,0,1-2.73,14.62"/><path class="d02d6ee6-845e-4e20-bb73-1e6552adae49" d="M166.48,64.63a11.82,11.82,0,0,1-15.65-2.92,10,10,0,0,1,2.73-14.62A11.82,11.82,0,0,1,169.2,50a10,10,0,0,1-2.73,14.62"/><path class="d02d6ee6-845e-4e20-bb73-1e6552adae49" d="M178.73,56.83a11.82,11.82,0,0,1-15.65-2.92,10,10,0,0,1,2.73-14.62,11.82,11.82,0,0,1,15.65,2.92,10,10,0,0,1-2.73,14.62"/><path class="d02d6ee6-845e-4e20-bb73-1e6552adae49" d="M143.79,70.49a11.82,11.82,0,0,1-15.65-2.92,10,10,0,0,1,2.73-14.62,11.82,11.82,0,0,1,15.65,2.92,10,10,0,0,1-2.73,14.62"/><path class="d02d6ee6-845e-4e20-bb73-1e6552adae49" d="M194.14,90a11.82,11.82,0,0,1-15.65-2.92,10,10,0,0,1,2.73-14.62,11.82,11.82,0,0,1,15.65,2.92A10,10,0,0,1,194.14,90"/><path class="d02d6ee6-845e-4e20-bb73-1e6552adae49" d="M224.29,130.91A11.82,11.82,0,0,1,208.64,128a10,10,0,0,1,2.73-14.62A11.82,11.82,0,0,1,227,116.29a10,10,0,0,1-2.73,14.62"/><path class="d02d6ee6-845e-4e20-bb73-1e6552adae49" d="M229.27,162.11a11.82,11.82,0,0,1-15.65-2.92,10,10,0,0,1,2.73-14.62A11.82,11.82,0,0,1,232,147.48a10,10,0,0,1-2.73,14.62"/></g></g></svg>