<?xml version="1.0" encoding="iso-8859-1"?>
<!-- Generator: Adobe Illustrator 19.0.0, SVG Export Plug-In . SVG Version: 6.00 Build 0)  -->
<svg xmlns="http://www.w3.org/2000/svg" xmlns:xlink="http://www.w3.org/1999/xlink" version="1.1" id="Capa_1" x="0px" y="0px" viewBox="0 0 120 120" style="enable-background:new 0 0 120 120;" xml:space="preserve" width="512px" height="512px">
<g id="_x30_403-peas">
	<g>
		<path style="fill-rule:evenodd;clip-rule:evenodd;" d="M114.857,91.265c-1.345-1.091-2.97-1.903-5.041-2.269    c-1.11-1.579-2.879-2.499-4.285-3.781c-1.496-1.277-2.825-2.72-4.285-4.033c-2.922-2.541-5.737-5.186-9.073-7.31    c-1.281-1.662-3.005-2.877-4.285-4.537c-5.295-3.359-9.772-7.537-15.376-10.586c-5.936-2.801-11.121-6.355-16.131-10.082    c-2.486-1.8-4.893-3.678-7.31-5.546c-1.093-1.091-2.534-1.834-3.529-3.024c-1.425-0.759-2.355-2.014-3.781-2.773    c-2.203-2.166-4.868-3.871-7.058-6.049c-1.18-1.004-2.5-1.869-3.528-3.024c-0.991-0.102-1.077-1.108-2.016-1.261    c-0.321-0.771-1.444-0.74-1.765-1.512c2.212-0.896,4.452-1.766,4.537-4.789c-0.623-0.973-1.366-1.827-3.024-1.764    c-1.727,0.046-2.864-0.498-4.538-0.504c-1.125-0.807-2.543-1.321-3.529-2.269c-0.717-1.803-1.521-3.519-2.017-5.544    c0.638-3.486,0.089-7.536-1.764-9.326c-1.288-0.645-2.447-1.417-4.537-1.261c-0.297,0.122-0.571,0.269-0.756,0.505    c-1.384,0.717-2.6,1.6-3.277,3.023C8.365,4.196,7.65,5.548,8.236,6.07c0.023,1.071,0.596,1.589,1.765,1.513    c0.653-0.213-0.485-1.106,0.252-1.513c-0.012-0.768,0.229-1.283,0.756-1.512c0.693-0.819,1.411-1.614,3.024-1.513    c0.042,0.295,0.399,0.274,0.756,0.253c1.661,1.029,0.798,4.58,1.008,7.057c-1.839,3.455-3.008,7.578-5.797,10.082    c-0.556,1.797-1.584,3.122-2.269,4.79c-1.242,1.278-2.675,2.367-3.781,3.781c-0.587,0.667-1.27,1.268-1.765,2.016    c-0.45,0.684-1.329,1.35-1.008,2.774c0.959,1.756,3.453,2.663,6.05,2.521c1.057,0.132,1.407-0.441,2.268-0.505    c0.552-0.056,1.357-1.136,1.765-0.504c-0.545,2.479-0.115,5.935-0.252,8.822c0.775,4.602,1.825,8.929,3.528,12.603    c2.115,3.263,4.787,5.968,7.311,8.822c1.488,2.292,2.87,4.691,4.285,7.058c1.039,2.741,2.562,4.998,4.285,7.057    c0.835,1.013,1.497,2.199,2.52,3.024c0.646,1.287,1.966,1.899,2.521,3.277c1.948,1.834,3.923,3.639,5.797,5.546    c0.836,0.088,1.093,0.755,1.513,1.26c0.494,0.429,1.259,0.589,1.512,1.259c1.116,0.817,1.983,1.881,3.277,2.521    c2.007,1.774,4.633,2.929,7.058,4.285c1.245,0.604,2.627,1.069,3.781,1.764c0.792,0.132,1.406,0.443,2.017,0.757    c0.741,0.267,1.669,0.347,2.269,0.756c3.313,0.551,6.253,1.477,9.326,2.269h8.318c4.79-0.755,10.511-0.579,14.619-2.017    c4.498-1.13,8.642-2.615,12.351-4.537c0.83-0.177,1.612-0.405,2.521-0.503c1.272-1.081,3.273-1.433,4.789-2.269    c2.049-0.305,3.891-0.814,4.285-2.773C118.185,92.643,116.938,91.537,114.857,91.265z M13.531,28.503    c-2.636,1.566-3.756,4.647-8.066,4.537c-0.161-1.338,1.324-1.028,1.513-2.017c0.743-0.348,1.021-1.163,1.764-1.512    c0.466-1.214,1.473-1.888,1.764-3.277c0.757-0.84,1.274-1.919,2.017-2.772c1.577-1.616,2.734-3.652,4.285-5.293    c0.088-0.331,0.444-0.397,0.504-0.756c1.5,0.517,1.971,2.061,3.024,3.023c1.523,0.579,2.797,1.404,4.538,1.765    c-0.121,0.793,0.359,0.986,0.503,1.513c-0.297,1.55-0.846,2.85-1.764,3.781c-0.771-0.183-0.741,0.435-1.513,0.252    c-0.724,0.051-1.28-0.065-1.512-0.504c-0.298-0.374-0.953-0.392-1.26-0.756c-0.987,0.249-1.464-0.557-2.017,0    c-0.952,0.214-1.184-0.838-1.764-0.252C14.431,26.547,13.929,27.474,13.531,28.503z M27.141,52.196    c-0.172-1.606,1.157-3.227,0-4.285c-1.846,0.17-1.962,2.07-2.772,3.277c-1.594-0.674-2.186-2.352-2.772-4.033    c-0.128-2.985,0.347-5.367,1.512-7.058c3.995-1.734,8.615,0.452,9.327,4.285c0.234,2.082-0.478,3.218-0.505,5.041    C30.733,50.746,29.766,52.301,27.141,52.196z M33.694,52.701c0.838-0.531,3.403-0.646,4.79-0.505    c4.887,0.501,9.143,4.545,9.579,9.075c-0.301,1.297-1.692,1.5-2.018,2.772c-0.914,0.682-1.034,2.158-1.764,3.024    c-0.063,1.617-0.724,2.637-0.756,4.285c-0.636,0.51-1.32-0.545-2.521-0.252c0.042-1.05,0.087-2.104-0.503-2.52    c-1.607-0.179-1.164,1.692-2.521,1.764c-0.49-0.517-1.189-0.828-1.764-1.26c0.083-1.832,2.191-4.583-0.252-5.293    c-1.46,0.051-0.739,2.286-2.016,2.521c-0.7-1.151,0.362-2.41,0.252-3.781c0.26-0.921,1.07-2.651-0.252-3.024    c-1.426-0.25-0.896,1.457-2.017,1.513v-3.529c0.156-0.937,0.601-1.583,0.756-2.52C33.091,54.281,33.791,53.888,33.694,52.701z     M83.853,101.348c-7.015-0.041-13.014-1.1-19.911-1.261c-0.979-0.198-1.559-0.794-2.268-1.26c-2.539-0.486-4.5-1.551-6.554-2.521    c-1.009-0.503-2.015-1.009-3.024-1.512c-0.968-0.545-1.612-1.413-2.772-1.764c-0.118-0.892-0.637-1.381-1.009-2.018    c-2.992-3.309-6.514-6.089-9.83-9.074c-2.441-3.356-5.444-6.15-7.562-9.831c-0.046-0.214,0.099-0.237,0.252-0.251    c0.705,0.386,1.421,0.763,2.017,1.259c2.606,0.335,4.303,1.578,6.805,2.016c1.429,0.168,2.292-0.229,3.277-0.503    c-0.023,5.569,1.95,9.141,4.538,12.099c0.94,0.235,1.156,1.196,2.269,1.26c0.415,0.762,1.861,0.491,2.52,1.008    c2.37,0.187,3.743,0.448,6.049,0.252c1.15-0.111,1.862-0.658,2.773-1.008c0.159,4.966,2.236,8.015,5.294,10.082    c1.639,0.546,3.188,1.182,4.788,1.765c0.622-0.034,1.214-0.038,1.513,0.252c2.131-0.221,4.311-0.394,5.797-1.26    c0.776-0.653,1.76-1.097,2.269-2.016c0.941-0.404,1.121-1.568,2.268-1.765c0.269,0.907,0.789,1.564,1.26,2.269    c0.61,0.398,1.115,0.901,1.512,1.513c0.484,0.441,1.553,0.296,1.513,1.26C86.268,100.568,85.161,101.059,83.853,101.348z     M77.301,92.525c-1.458,0.224-1.203,2.158-1.765,3.277c-0.935,0.179-1.081-0.431-2.017-0.252c0.125-2.229,1.353-3.353,1.261-5.798    c-0.062-0.273-0.502-0.17-0.503-0.504c-1.702-0.357-1.682,1.006-2.521,1.513c-0.239,1.525-0.81,2.719-1.261,4.033    c-0.934-0.411-1.796-0.894-2.267-1.764c-0.185-1.844,1.578-2.585,0.756-4.285c-1.234-0.464-1.206,1.631-1.765,1.007    c-0.183-2.199,0.318-3.715,0.505-5.544c0.778-0.566,0.725-1.963,1.26-2.773c0.075-0.849,1.117-0.73,1.261-1.512    c0.903,0.063,0.923-0.757,1.764-0.757c0.966-0.797,2.711-0.816,4.538-0.756c1.358,0.239,2.294,0.899,3.528,1.26    c1.796,1.565,2.936,3.787,3.025,7.058c0,1.007-0.504,1.512-0.504,2.52c-0.807,0.622-1.085,1.771-1.765,2.52    c-0.548,0.881-1.385,1.473-1.765,2.521c-0.664,0.076-0.828-0.349-0.756-1.008C77.973,93.029,77.548,92.866,77.301,92.525z     M89.904,96.558c-2.623-0.403-4.087-1.963-5.293-3.78c0.122-1.223,0.804-1.885,1.008-3.025c0.23-0.441,0.086-1.257,0.503-1.512    c0.146-0.443-0.304-1.48,0.253-1.512c0.078-0.846,0.843-1.006,1.513-1.261c0.387-0.537,1.12-0.728,1.764-1.007h3.025    c0.769,0.491,1.731,0.79,2.521,1.26c1.06,1.292,1.453,3.251,1.26,5.798C95.074,93.999,93.275,96.065,89.904,96.558z     M111.58,93.281c-1.868,0.653-3.752,1.291-5.294,2.269c-0.98,0.28-1.823,0.697-2.519,1.26c-0.86,0.316-1.812,0.542-2.521,1.008    h-2.268c-0.603-0.154-1.828,0.317-2.016-0.252c-0.521-0.87-0.974-1.332,0-2.016c0.454-0.723,0.665-1.688,1.26-2.269    c0.221-1.543,0.734-2.794,0.756-4.536c-0.79-5.571-6.962-7.674-13.107-6.301c-1.619-4.515-5.429-6.839-10.839-7.562    c-1.852,0.26-3.384,0.473-5.04,1.26c-0.103,0.048-0.027,0.195-0.252,0.251c-0.684,0.171-1.289,0.77-2.016,1.26    c-0.735,0.497-1.587,0.913-2.269,1.512c-0.316,0.279-1.423,1.304-1.764,1.765c-0.067,0.089,0.083,0.436,0,0.504    c-0.683,0.559-1.194,1.949-1.764,3.025c-1.525-0.142-3.174,0.228-4.034,0c0.051-1.479,0.006-2.863-1.008-3.277    c-1.561-0.134-1.316,1.54-2.269,2.017c-0.943-0.15-1.303-0.881-2.017-1.261c-0.119-1.8,0.642-2.72,0.757-4.285    c0.194-1.255,1.291-2.305,0.756-3.528c-1.282-0.651-2.155,0.494-2.521,1.512c-0.71,0.801-1.104,1.921-1.26,3.277    c-0.99-0.186-1.2-1.152-1.26-2.269c0.295-0.797,0.46-1.724,1.008-2.269c0.182-1.68,1.593-3.911-0.252-4.789    c-1.509-0.25-1.198,1.322-2.269,1.512c-0.284-4.484,2.286-6.116,5.041-7.561h2.269c2.351,0.674,4.634,1.415,6.806,2.268    c1.48,1.292,2.787,2.759,4.789,3.529c0.131,0.384,0.093,0.62,0.253,1.008c0.051,0.127,0.485,0.667,0.503,0.756    c0.266,1.293-0.197,3.048,0,4.538c1.869,0.188,1.781-1.581,2.521-2.521c0.19-2.708-0.523-4.818-1.764-6.805    c-0.849-1.357-2.283-2.808-3.781-3.781c-0.898-0.583-1.861-1.042-3.024-1.512c-0.249-0.101-0.659-0.099-1.008-0.253    c-0.12-0.052-0.417-0.479-0.504-0.504c-0.383-0.109-1.003-0.15-1.513-0.251c-1.315-0.263-3.247-0.296-5.293-0.253    c-1.09,0.002-1.599,0.586-2.772,0.504c0.519-1.003,0.078-2.153,0-3.276c-1.931-5.483-7.297-8.807-14.368-8.318    c0.129-1.468,0.373-2.82,0.252-4.538c0.006-0.594-0.434-0.743-0.252-1.512c-1.744-4.138-4.796-6.968-10.838-6.806    c-1.612,0.236-2.78,0.918-4.034,1.512c-2.188,2.265-3.015,5.892-2.773,10.587c1.101,4.613,3.982,7.446,9.831,7.311    c-0.706,3.074-1.218,6.523-0.757,10.082c-0.976-0.537-1.205-1.821-2.017-2.521c-0.486-1.025-1.737-1.287-2.016-2.521    c-1.719-1.305-2.941-3.108-4.285-4.789c-1.001-3.788-2.608-6.969-3.528-10.837c-0.077-5.37-0.131-10.718,1.008-14.872v-0.757    c2.706,0.739,4.437,2.453,8.066,2.269c1.19,0.013,1.288-1.064,2.017-1.512c1.601,0.583,2.495,1.874,3.781,2.772    c1.282,0.818,2.139,2.063,3.528,2.772c2.017,2.185,4.56,3.843,6.806,5.798c4.683,3.802,9.414,7.558,14.367,11.09    c4.822,3.665,9.978,6.994,15.627,9.831c5.591,2.812,9.673,7.131,14.872,10.334c1.698,1.822,3.374,3.697,5.293,5.293    c1.933,1.606,4.142,2.909,5.797,4.79c1.871,1.658,3.635,3.423,5.294,5.292c1.098,0.667,1.762,1.766,3.024,2.269    c0.57,1.194,2.355,1.173,3.277,2.017c1.391-0.131,2.375,0.145,3.528,0.252c0.539,0.722,2.871-0.35,2.773,1.008    C113.156,93.379,112.535,92.748,111.58,93.281z M25.124,43.626c-0.476,0.058-0.556-0.283-1.007-0.251    c-1.329,0.709-2.854,3.27-1.513,5.041c1.352-0.16,1.351-1.674,2.269-2.268c-0.068-0.908,0.465-1.214,0.503-2.017    C25.181,44.075,25.083,43.919,25.124,43.626z M42.517,103.616c-0.362-0.905-0.564-1.985-1.008-2.772    c-0.165-0.291-0.571-0.479-0.756-0.756c-0.203-0.304-0.313-0.784-0.505-1.008c-1.459-1.709-3.556-2.634-5.293-3.781    c-1.002,0.079-1.267-0.582-2.269-0.504c-0.567-0.441-1.887-0.129-2.267-0.757c0.498-1.432,0.814-3.049,0.756-5.04    c-0.181-2.676-1.362-4.352-2.269-6.302c-2.616-2.676-5.917-4.669-11.595-4.285c-3.862,0.928-6.397,3.181-8.822,5.545    c-0.666,1.602-1.588,2.95-2.017,4.789c-0.613,2.129-0.135,3.897-0.503,6.049c1.164,1.188,1.944,2.76,3.024,4.033    c0.694,0.482,1.322,1.029,2.017,1.512c0.453,0.807,1.788,0.733,2.268,1.513c-0.066,0.774-0.548,1.133-0.757,1.764    c-0.429,0.495-0.29,1.559-0.756,2.017c-0.289,2.253-0.428,3.409-0.251,5.797c0.523,0.065,0.068,1.108,0.504,1.261    c-0.066,0.737,0.569,0.774,0.503,1.512c1.039,1.398,2.194,2.68,3.529,3.781c2.535,1.206,5.865,2.025,9.326,2.017    c3.961-0.01,7.754-1.226,10.586-2.269c2.941-2.353,5.786-4.801,7.059-8.823c0.226-1.078,0.129-1.023,0-2.016    C42.859,105.647,42.765,104.235,42.517,103.616z M13.026,97.063c0.199-1.482,2.267-1.095,2.268-2.773    c-0.291-1.933-3.098-0.668-4.033-0.253c-0.649-1.541,0.222-2.479,0.756-3.528c0.174-1.015-1.062-0.62-1.008-1.513    c0.922-2.606,2.691-4.366,4.789-5.797c2.905-0.364,5.611-0.186,8.57,0c1.295,1.226,2.277,2.764,2.772,4.789    c0.32,0.773,0.858,1.326,1.26,2.016c-0.049,1.631-0.409,2.951-1.008,4.033c-4.603,0.438-7.837,2.246-10.838,4.285    C14.974,98.307,13.898,97.787,13.026,97.063z M39.996,109.161c-0.96,1.055-2.181,1.851-3.024,3.024    c-0.292-0.041-0.448,0.056-0.503,0.253c-1.249,0.096-1.729,0.959-3.026,1.008c-0.716,0.627-2.016,0.672-2.772,1.26    c-0.811-0.406-1.671-0.209-2.269,0.251c-1.181-0.33-2.765-0.258-4.284-0.251c0.102-1.073,1.284-1.067,1.259-2.269    c-1.352-1.768-3.433,0.694-4.285,1.764c-1.13-0.382-1.736-1.288-2.269-2.268c-0.188-0.947,0.963-0.55,1.009-1.262    c0.584-0.17,0.675-0.837,1.259-1.007c0.923-0.59,1.869-1.157,2.269-2.269c0.106-0.862-0.755-0.758-1.008-1.26    c-1.902,0.198-2.942,1.257-4.033,2.269c-0.71-0.255,0.07-1.071,0-1.513c-0.123-0.796,0.454-0.89,0.253-1.764    c0.585-0.759,0.893-1.795,1.26-2.773c1.527-1.664,3.887-2.496,5.797-3.78c0.818,0.146,1.172-0.171,1.764-0.252    c2.817,0.208,4.483,1.567,6.554,2.521c2.164,0.861,3.875,2.173,5.545,3.528c0.034,0.47,0.165,0.843,0.503,1.009V109.161z" fill="#91DC5A"/>
	</g>
</g>
<g>
</g>
<g>
</g>
<g>
</g>
<g>
</g>
<g>
</g>
<g>
</g>
<g>
</g>
<g>
</g>
<g>
</g>
<g>
</g>
<g>
</g>
<g>
</g>
<g>
</g>
<g>
</g>
<g>
</g>
</svg>
