<svg xmlns="http://www.w3.org/2000/svg" viewBox="0 0 259.37 230.67"><defs><style>.f1f112be-6867-458e-9027-ef36b5223d7e{fill:#751d96;}.\35 4c1ee48-f1b8-41f7-b8ab-aa55bf26d105,.b7cb9330-6aeb-4d12-87da-d7c4b4e8ed6e{opacity:0.1;}.b7cb9330-6aeb-4d12-87da-d7c4b4e8ed6e{isolation:isolate;}.\36 fdaf69b-d53b-4ba9-abee-4f66fbe39dee{fill:#9142af;}.da6ed35c-9005-4b88-a8a3-5f905810f04c{fill:#aa48cf;}.\39 a7666f0-79ab-4a64-b6ae-a7560b7402d3{fill:#ba75d4;}</style></defs><title>Asset 2</title><g id="3e5d8c71-993f-4753-9d7d-873f2c048954" data-name="Layer 2"><g id="046a2416-ea3a-4de7-b789-67763aac579c" data-name="Layer 2"><path class="f1f112be-6867-458e-9027-ef36b5223d7e" d="M194.77,20.19C64.09-42.91,25.92,62.05,25.92,62.05l14.39,49.37,53,17.8,92.36-31S281.46,62,194.77,20.19Z"/><path class="b7cb9330-6aeb-4d12-87da-d7c4b4e8ed6e" d="M109.91,15.49C120.26,8.19,130.49,2.31,133,.87A124.61,124.61,0,0,0,113.43.11c-3,2-6.33,4.15-9.66,6.49A145.84,145.84,0,0,0,85.92,21c-4.74,4.64-7.87,8.84-9.48,12.74-.08.17-.14.34-.21.51a17.58,17.58,0,0,0-.89,3.18c-2.41,14,5.48,21.78,12.43,28.64a65.15,65.15,0,0,1,7.92,8.8c1.54,2.21,1.18,3.44,1,3.91-.92,3.17-6.13,6.26-8.5,7.25a5.4,5.4,0,0,0,4.11,10c1.23-.51,12.12-5.22,14.76-14.19.89-3,1.18-7.8-2.55-13.15a73.48,73.48,0,0,0-9.2-10.32c-6.67-6.56-10.29-10.51-9.57-17.64,14-2.09,32.75-3,49,2.56,10.38,3.58,14.85,8.22,14.9,8.26l0,0,8-7.26c-.79-.87-18.44-19.66-64.34-15.33l.17-.17A134.8,134.8,0,0,1,109.91,15.49Z"/><path class="6fdaf69b-d53b-4ba9-abee-4f66fbe39dee" d="M227.82,18.14c-26.24-3.63-58.69,5.3-70.62,19.65s-21.54,34.1-32.11,42.7S94.83,91,94.83,91l-4.54,63.25,107.13-5.68L237,75.93S254.06,21.79,227.82,18.14Z"/><g class="54c1ee48-f1b8-41f7-b8ab-aa55bf26d105"><path d="M157.68,122.8a5.4,5.4,0,0,1-2.57-10.15c27.86-15,46.42-66.05,46.6-66.57a5.41,5.41,0,0,1,10.18,3.64c-.81,2.26-20.13,55.44-51.65,72.43A5.34,5.34,0,0,1,157.68,122.8Z"/></g><path class="da6ed35c-9005-4b88-a8a3-5f905810f04c" d="M151.11,108.52c-47.26,12.24-62,37.83-62,37.83S68,251.3,175.46,222.34s87.2-167.67,70.64-161.88C216.22,70.92,198.37,96.29,151.11,108.52Z"/><g class="54c1ee48-f1b8-41f7-b8ab-aa55bf26d105"><path d="M138.08,204.2a5.41,5.41,0,0,1-1.92-10.46c13-5,33.61-17.15,57.47-46.8A263.33,263.33,0,0,0,217,112.73a5.41,5.41,0,0,1,9.48,5.19,270.58,270.58,0,0,1-24.36,35.64C181.76,179,160.85,195.88,140,203.84A5.51,5.51,0,0,1,138.08,204.2Z"/></g><path class="9a7666f0-79ab-4a64-b6ae-a7560b7402d3" d="M110.63,99.73C63.38,59.37,9.81,53.12,5.38,72.93c-23,102.68,28.34,166.41,140.06,156.78S173.59,153.52,110.63,99.73Z"/><path class="b7cb9330-6aeb-4d12-87da-d7c4b4e8ed6e" d="M154.19,228.67c-18.28-7-35.69-17.76-51.73-32A231.28,231.28,0,0,1,66.6,155.77C48,129,39.19,105.67,39.1,105.44A5.4,5.4,0,1,0,29,109.2c.36,1,9.25,24.62,28.57,52.49a242.52,242.52,0,0,0,37.59,42.92,187.57,187.57,0,0,0,37,25.91q6.48-.23,13.27-.81c3.14-.27,6.13-.59,9-.95Z"/></g></g></svg>