<?xml version="1.0" encoding="iso-8859-1"?>
<!-- Generator: Adobe Illustrator 19.0.0, SVG Export Plug-In . SVG Version: 6.00 Build 0)  -->
<svg xmlns="http://www.w3.org/2000/svg" xmlns:xlink="http://www.w3.org/1999/xlink" version="1.1" id="Capa_1" x="0px" y="0px" viewBox="0 0 479.968 479.968" style="enable-background:new 0 0 479.968 479.968;" xml:space="preserve" width="512px" height="512px">
<g>
	<g>
		<path d="M319.984,367.968c48.601,0,88-39.399,88-88c0-4.418-3.582-8-8-8h-72c-34.453,0.032-65.718,20.167-80,51.52v-67.52h40    c48.601,0,88-39.399,88-88c0-4.418-3.582-8-8-8h-40c-34.453,0.032-65.718,20.167-80,51.52v-67.52h16c39.765,0,72-32.235,72-72    c0-4.418-3.582-8-8-8h-16c-14.439,0.007-28.543,4.355-40.48,12.48c2.539-27.234-6.858-54.23-25.76-74    c-3.066-3.181-8.131-3.274-11.312-0.208c-0.071,0.068-0.14,0.138-0.208,0.208c-18.902,19.77-28.299,46.766-25.76,74    c-11.937-8.125-26.04-12.473-40.48-12.48h-16c-4.418,0-8,3.582-8,8c0,39.765,32.236,72,72,72h16v67.52    c-14.282-31.353-45.547-51.488-80-51.52h-40c-4.418,0-8,3.582-8,8c0,48.601,39.399,88,88,88h40v67.52    c-14.282-31.353-45.547-51.488-80-51.52h-72c-4.418,0-8,3.582-8,8c0,48.601,39.399,88,88,88h72v67.52    c-14.282-31.353-45.547-51.488-80-51.52h-40c-4.418,0-8,3.582-8,8c0,48.601,39.399,88,88,88h96c48.601,0,88-39.399,88-88    c0-4.418-3.582-8-8-8h-40c-34.453,0.032-65.718,20.167-80,51.52v-67.52H319.984z M319.984,351.968h-40l110.24-58    C383.57,327.538,354.206,351.785,319.984,351.968z M327.984,287.968h40l-110.64,58    C264.028,312.252,293.612,287.961,327.984,287.968z M287.984,239.968h-13.6l83.68-56    C350.607,216.685,321.539,239.912,287.984,239.968z M327.984,175.968h13.6l-83.68,56    C265.361,199.252,294.429,176.024,327.984,175.968z M191.984,239.968c-33.555-0.056-62.623-23.284-70.08-56l83.68,56H191.984z     M138.384,175.968h13.6c33.555,0.056,62.623,23.284,70.08,56L138.384,175.968z M159.984,351.968    c-34.373,0.007-63.956-24.284-70.64-58l110.64,58H159.984z M112.384,287.968h39.6c34.373-0.007,63.956,24.284,70.64,58    L112.384,287.968z M191.984,463.968c-33.555-0.056-62.623-23.284-70.08-56l83.68,56H191.984z M138.384,399.968h13.6    c33.555,0.056,62.623,23.284,70.08,56L138.384,399.968z M287.984,463.968h-13.6l83.68-56    C350.607,440.685,321.539,463.912,287.984,463.968z M327.984,399.968h13.6l-83.68,56    C265.361,423.252,294.429,400.024,327.984,399.968z M316.464,91.488c-7.218,19.347-24.497,33.152-44.96,35.92L316.464,91.488z     M304.464,80.528l-44.96,35.92C266.722,97.101,284.001,83.297,304.464,80.528z M163.504,91.488l44.96,35.92    C188.001,124.64,170.722,110.835,163.504,91.488z M175.504,80.528c20.463,2.768,37.742,16.573,44.96,35.92L175.504,80.528z     M239.984,115.728c-21.28-28.284-21.28-67.236,0-95.52C261.264,48.493,261.264,87.444,239.984,115.728z" fill="#91DC5A"/>
	</g>
</g>
<g>
</g>
<g>
</g>
<g>
</g>
<g>
</g>
<g>
</g>
<g>
</g>
<g>
</g>
<g>
</g>
<g>
</g>
<g>
</g>
<g>
</g>
<g>
</g>
<g>
</g>
<g>
</g>
<g>
</g>
</svg>
